<mxfile host="app.diagrams.net" modified="2021-01-07T04:28:30.069Z" agent="5.0 (Macintosh; Intel Mac OS X 10_15_5) AppleWebKit/537.36 (KHTML, like Gecko) Chrome/87.0.4280.88 Safari/537.36" etag="ux4CP3YobFVPjRYRriUp" version="13.9.7" type="github">
  <diagram id="HME9X4zxY0MB1SYocmlw" name="Page-1">
    <mxGraphModel dx="1426" dy="679" grid="1" gridSize="10" guides="1" tooltips="1" connect="1" arrows="1" fold="1" page="1" pageScale="1" pageWidth="827" pageHeight="1169" math="0" shadow="0">
      <root>
        <mxCell id="0" />
        <mxCell id="1" parent="0" />
        <mxCell id="_NH5qcqJoXLWZ3RZgC6V-1" value="Waber" style="rounded=0;whiteSpace=wrap;html=1;verticalAlign=top;" vertex="1" parent="1">
          <mxGeometry x="130" y="90" width="590" height="370" as="geometry" />
        </mxCell>
        <mxCell id="_NH5qcqJoXLWZ3RZgC6V-8" style="edgeStyle=orthogonalEdgeStyle;rounded=0;orthogonalLoop=1;jettySize=auto;html=1;" edge="1" parent="1" source="_NH5qcqJoXLWZ3RZgC6V-2" target="_NH5qcqJoXLWZ3RZgC6V-7">
          <mxGeometry relative="1" as="geometry" />
        </mxCell>
        <mxCell id="_NH5qcqJoXLWZ3RZgC6V-27" style="edgeStyle=none;rounded=0;orthogonalLoop=1;jettySize=auto;html=1;entryX=0.25;entryY=0;entryDx=0;entryDy=0;" edge="1" parent="1" source="_NH5qcqJoXLWZ3RZgC6V-2" target="_NH5qcqJoXLWZ3RZgC6V-22">
          <mxGeometry relative="1" as="geometry" />
        </mxCell>
        <mxCell id="_NH5qcqJoXLWZ3RZgC6V-2" value="user-service" style="rounded=0;whiteSpace=wrap;html=1;fillColor=#dae8fc;strokeColor=#6c8ebf;" vertex="1" parent="1">
          <mxGeometry x="200" y="210" width="100" height="40" as="geometry" />
        </mxCell>
        <mxCell id="_NH5qcqJoXLWZ3RZgC6V-10" style="edgeStyle=orthogonalEdgeStyle;rounded=0;orthogonalLoop=1;jettySize=auto;html=1;entryX=0.5;entryY=1;entryDx=0;entryDy=0;entryPerimeter=0;" edge="1" parent="1" source="_NH5qcqJoXLWZ3RZgC6V-3" target="_NH5qcqJoXLWZ3RZgC6V-9">
          <mxGeometry relative="1" as="geometry" />
        </mxCell>
        <mxCell id="_NH5qcqJoXLWZ3RZgC6V-15" style="edgeStyle=orthogonalEdgeStyle;rounded=0;orthogonalLoop=1;jettySize=auto;html=1;" edge="1" parent="1" source="_NH5qcqJoXLWZ3RZgC6V-3" target="_NH5qcqJoXLWZ3RZgC6V-2">
          <mxGeometry relative="1" as="geometry" />
        </mxCell>
        <mxCell id="_NH5qcqJoXLWZ3RZgC6V-26" style="rounded=0;orthogonalLoop=1;jettySize=auto;html=1;" edge="1" parent="1" source="_NH5qcqJoXLWZ3RZgC6V-3" target="_NH5qcqJoXLWZ3RZgC6V-22">
          <mxGeometry relative="1" as="geometry" />
        </mxCell>
        <mxCell id="_NH5qcqJoXLWZ3RZgC6V-3" value="match-service" style="rounded=0;whiteSpace=wrap;html=1;fillColor=#dae8fc;strokeColor=#6c8ebf;" vertex="1" parent="1">
          <mxGeometry x="390" y="210" width="100" height="40" as="geometry" />
        </mxCell>
        <mxCell id="_NH5qcqJoXLWZ3RZgC6V-13" style="edgeStyle=orthogonalEdgeStyle;rounded=0;orthogonalLoop=1;jettySize=auto;html=1;" edge="1" parent="1" source="_NH5qcqJoXLWZ3RZgC6V-4" target="_NH5qcqJoXLWZ3RZgC6V-12">
          <mxGeometry relative="1" as="geometry" />
        </mxCell>
        <mxCell id="_NH5qcqJoXLWZ3RZgC6V-4" value="pricing-service" style="rounded=0;whiteSpace=wrap;html=1;fillColor=#dae8fc;strokeColor=#6c8ebf;" vertex="1" parent="1">
          <mxGeometry x="200" y="320" width="100" height="40" as="geometry" />
        </mxCell>
        <mxCell id="_NH5qcqJoXLWZ3RZgC6V-14" style="edgeStyle=orthogonalEdgeStyle;rounded=0;orthogonalLoop=1;jettySize=auto;html=1;" edge="1" parent="1" source="_NH5qcqJoXLWZ3RZgC6V-5" target="_NH5qcqJoXLWZ3RZgC6V-11">
          <mxGeometry relative="1" as="geometry" />
        </mxCell>
        <mxCell id="_NH5qcqJoXLWZ3RZgC6V-16" style="edgeStyle=orthogonalEdgeStyle;rounded=0;orthogonalLoop=1;jettySize=auto;html=1;entryX=0.5;entryY=1;entryDx=0;entryDy=0;" edge="1" parent="1" source="_NH5qcqJoXLWZ3RZgC6V-5" target="_NH5qcqJoXLWZ3RZgC6V-3">
          <mxGeometry relative="1" as="geometry" />
        </mxCell>
        <mxCell id="_NH5qcqJoXLWZ3RZgC6V-18" style="edgeStyle=orthogonalEdgeStyle;rounded=0;orthogonalLoop=1;jettySize=auto;html=1;entryX=1;entryY=0.5;entryDx=0;entryDy=0;" edge="1" parent="1" source="_NH5qcqJoXLWZ3RZgC6V-5" target="_NH5qcqJoXLWZ3RZgC6V-4">
          <mxGeometry relative="1" as="geometry" />
        </mxCell>
        <mxCell id="_NH5qcqJoXLWZ3RZgC6V-29" style="edgeStyle=none;rounded=0;orthogonalLoop=1;jettySize=auto;html=1;" edge="1" parent="1" source="_NH5qcqJoXLWZ3RZgC6V-5" target="_NH5qcqJoXLWZ3RZgC6V-22">
          <mxGeometry relative="1" as="geometry" />
        </mxCell>
        <mxCell id="_NH5qcqJoXLWZ3RZgC6V-5" value="trip-service" style="rounded=0;whiteSpace=wrap;html=1;fillColor=#dae8fc;strokeColor=#6c8ebf;" vertex="1" parent="1">
          <mxGeometry x="390" y="320" width="100" height="40" as="geometry" />
        </mxCell>
        <mxCell id="_NH5qcqJoXLWZ3RZgC6V-7" value="MySQL" style="shape=cylinder3;whiteSpace=wrap;html=1;boundedLbl=1;backgroundOutline=1;size=15;fillColor=#fff2cc;strokeColor=#d6b656;" vertex="1" parent="1">
          <mxGeometry x="220" y="130" width="60" height="60" as="geometry" />
        </mxCell>
        <mxCell id="_NH5qcqJoXLWZ3RZgC6V-9" value="MongoDB" style="shape=cylinder3;whiteSpace=wrap;html=1;boundedLbl=1;backgroundOutline=1;size=15;fillColor=#fff2cc;strokeColor=#d6b656;" vertex="1" parent="1">
          <mxGeometry x="410" y="130" width="60" height="60" as="geometry" />
        </mxCell>
        <mxCell id="_NH5qcqJoXLWZ3RZgC6V-11" value="MongoDB" style="shape=cylinder3;whiteSpace=wrap;html=1;boundedLbl=1;backgroundOutline=1;size=15;fillColor=#fff2cc;strokeColor=#d6b656;" vertex="1" parent="1">
          <mxGeometry x="410" y="380" width="60" height="60" as="geometry" />
        </mxCell>
        <mxCell id="_NH5qcqJoXLWZ3RZgC6V-12" value="MySQL" style="shape=cylinder3;whiteSpace=wrap;html=1;boundedLbl=1;backgroundOutline=1;size=15;fillColor=#fff2cc;strokeColor=#d6b656;" vertex="1" parent="1">
          <mxGeometry x="220" y="380" width="60" height="60" as="geometry" />
        </mxCell>
        <mxCell id="_NH5qcqJoXLWZ3RZgC6V-19" value="broadcast-sevice" style="whiteSpace=wrap;html=1;fillColor=#dae8fc;strokeColor=#6c8ebf;" vertex="1" parent="1">
          <mxGeometry x="550" y="210" width="120" height="40" as="geometry" />
        </mxCell>
        <mxCell id="_NH5qcqJoXLWZ3RZgC6V-23" style="edgeStyle=orthogonalEdgeStyle;rounded=0;orthogonalLoop=1;jettySize=auto;html=1;entryX=0.5;entryY=1;entryDx=0;entryDy=0;" edge="1" parent="1" source="_NH5qcqJoXLWZ3RZgC6V-22" target="_NH5qcqJoXLWZ3RZgC6V-19">
          <mxGeometry relative="1" as="geometry">
            <Array as="points">
              <mxPoint x="610" y="285" />
            </Array>
          </mxGeometry>
        </mxCell>
        <mxCell id="_NH5qcqJoXLWZ3RZgC6V-22" value="message queue" style="shape=process;whiteSpace=wrap;html=1;backgroundOutline=1;fillColor=#d5e8d4;strokeColor=#82b366;" vertex="1" parent="1">
          <mxGeometry x="270" y="270" width="140" height="30" as="geometry" />
        </mxCell>
      </root>
    </mxGraphModel>
  </diagram>
</mxfile>
